<svg xmlns="http://www.w3.org/2000/svg" fill="#61DAFB" viewBox="0 0 24 24"><path d="M12 9.861a2.139 2.139 0 1 0 0 4.278 2.139 2.139 0 1 0 0-4.278m-5.992 6.394-.472-.12C2.018 15.246 0 13.737 0 11.996s2.018-3.25 5.536-4.139l.472-.119.133.468a23.5 23.5 0 0 0 1.363 3.578l.101.213-.101.213a23.3 23.3 0 0 0-1.363 3.578zM5.317 8.95c-2.674.751-4.315 1.9-4.315 3.046s1.641 2.294 4.315 3.046a25 25 0 0 1 1.182-3.046A25 25 0 0 1 5.317 8.95m12.675 7.305-.133-.469a23.4 23.4 0 0 0-1.364-3.577l-.101-.213.101-.213a23.4 23.4 0 0 0 1.364-3.578l.133-.468.473.119c3.517.889 5.535 2.398 5.535 4.14s-2.018 3.25-5.535 4.139zm-.491-4.259c.48 1.039.877 2.06 1.182 3.046 2.675-.752 4.315-1.901 4.315-3.046 0-1.146-1.641-2.294-4.315-3.046a25 25 0 0 1-1.182 3.046M5.31 8.945l-.133-.467C4.188 4.992 4.488 2.494 6 1.622c1.483-.856 3.864.155 6.359 2.716l.34.349-.34.349a23.6 23.6 0 0 0-2.422 2.967l-.135.193-.235.02a23.7 23.7 0 0 0-3.785.61zm1.896-6.63q-.404 0-.705.173c-.994.573-1.17 2.565-.485 5.253a25 25 0 0 1 3.233-.501 25 25 0 0 1 2.052-2.544c-1.56-1.519-3.037-2.381-4.095-2.381m9.589 20.362q-.002 0 0 0c-1.425 0-3.255-1.073-5.154-3.023l-.34-.349.34-.349a23.5 23.5 0 0 0 2.421-2.968l.135-.193.234-.02a23.6 23.6 0 0 0 3.787-.609l.472-.119.134.468c.987 3.484.688 5.983-.824 6.854a2.4 2.4 0 0 1-1.205.308m-4.096-3.381c1.56 1.519 3.037 2.381 4.095 2.381h.001c.267 0 .505-.058.704-.173.994-.573 1.171-2.566.485-5.254a25 25 0 0 1-3.234.501 25 25 0 0 1-2.051 2.545M18.69 8.945l-.472-.119a23.5 23.5 0 0 0-3.787-.61l-.234-.02-.135-.193a23.4 23.4 0 0 0-2.421-2.967l-.34-.349.34-.349C14.135 1.778 16.515.767 18 1.622c1.512.872 1.812 3.37.824 6.855zM14.75 7.24c1.142.104 2.227.273 3.234.501.686-2.688.509-4.68-.485-5.253-.988-.571-2.845.304-4.8 2.208A25 25 0 0 1 14.75 7.24M7.206 22.677A2.4 2.4 0 0 1 6 22.369c-1.512-.871-1.812-3.369-.823-6.854l.132-.468.472.119c1.155.291 2.429.496 3.785.609l.235.02.134.193a23.6 23.6 0 0 0 2.422 2.968l.34.349-.34.349c-1.898 1.95-3.728 3.023-5.151 3.023m-1.19-6.427c-.686 2.688-.509 4.681.485 5.254.987.563 2.843-.305 4.8-2.208a25 25 0 0 1-2.052-2.545 25 25 0 0 1-3.233-.501m5.984.628c-.823 0-1.669-.036-2.516-.106l-.235-.02-.135-.193a30 30 0 0 1-1.35-2.122 30 30 0 0 1-1.166-2.228l-.1-.213.1-.213a30 30 0 0 1 1.166-2.228c.414-.716.869-1.43 1.35-2.122l.135-.193.235-.02a30 30 0 0 1 5.033 0l.234.02.134.193a30 30 0 0 1 2.517 4.35l.101.213-.101.213a29.6 29.6 0 0 1-2.517 4.35l-.134.193-.234.02c-.847.07-1.694.106-2.517.106m-2.197-1.084c1.48.111 2.914.111 4.395 0a29 29 0 0 0 2.196-3.798 28.6 28.6 0 0 0-2.197-3.798 29 29 0 0 0-4.394 0 28.5 28.5 0 0 0-2.197 3.798 29 29 0 0 0 2.197 3.798"/></svg>