<?xml version="1.0" standalone="no"?>
<!DOCTYPE svg PUBLIC "-//W3C//DTD SVG 20010904//EN"
 "http://www.w3.org/TR/2001/REC-SVG-20010904/DTD/svg10.dtd">
<svg version="1.0" xmlns="http://www.w3.org/2000/svg"
 width="256.000000pt" height="256.000000pt" viewBox="0 0 256.000000 256.000000"
 preserveAspectRatio="xMidYMid meet">
<metadata>
Created by potrace 1.11, written by Peter Selinger 2001-2013
</metadata>
<g transform="translate(0.000000,256.000000) scale(0.100000,-0.100000)"
fill="#000000" stroke="none">
<path d="M1030 2534 c-238 -44 -475 -167 -540 -282 -12 -20 -39 -49 -60 -64
-47 -33 -108 -152 -136 -268 -26 -102 -25 -432 0 -527 9 -35 21 -112 26 -173
31 -343 38 -399 74 -532 45 -168 131 -327 223 -407 105 -93 218 -163 318 -198
227 -78 425 -84 610 -16 91 34 110 44 232 131 169 120 261 241 317 412 37 115
40 127 61 245 28 162 46 282 56 370 5 50 13 101 18 115 28 74 36 146 36 325 0
204 -8 255 -61 386 -78 193 -239 340 -455 415 -176 61 -208 66 -459 69 -129 2
-246 1 -260 -1z m-285 -627 c224 -96 493 -128 875 -106 124 7 254 13 290 13
l65 1 3 -30 c4 -51 24 -117 60 -200 55 -128 62 -165 62 -330 1 -256 -29 -375
-124 -510 -52 -72 -143 -158 -197 -185 -65 -34 -130 -23 -179 30 -3 3 -23 21
-46 41 -36 32 -49 37 -113 43 l-72 7 15 24 c24 37 21 58 -6 48 -29 -10 -151
-9 -202 2 l-39 8 7 -41 6 -42 -59 0 c-77 0 -93 -7 -191 -79 -45 -34 -89 -61
-98 -61 -81 1 -245 164 -307 305 -50 113 -57 160 -53 409 l3 231 46 85 c53 98
78 166 110 302 22 93 23 96 43 83 12 -8 57 -29 101 -48z m378 -1437 c98 -39
170 -40 264 -4 107 40 109 40 131 4 18 -29 18 -35 6 -78 -17 -55 -36 -72 -82
-72 -37 0 -66 12 -99 43 -17 15 -37 20 -85 21 -55 1 -69 -3 -112 -31 -67 -44
-107 -44 -140 0 -41 53 -44 89 -10 121 16 14 34 26 41 26 6 0 45 -13 86 -30z"/>
<path d="M815 1560 c-77 -11 -154 -48 -161 -76 -14 -56 21 -67 126 -39 30 8
94 15 141 15 91 0 99 4 99 50 0 41 -102 66 -205 50z"/>
<path d="M1593 1561 c-56 -10 -75 -27 -71 -65 l3 -31 105 -6 c58 -3 126 -12
151 -18 69 -19 103 -12 107 20 2 19 -4 33 -24 48 -51 40 -187 67 -271 52z"/>
<path d="M1642 1359 c-33 -4 -65 -17 -87 -33 -32 -25 -42 -36 -31 -36 3 0 11
6 18 13 25 23 76 47 100 47 20 -1 18 -4 -14 -20 -119 -64 -124 -218 -8 -278
130 -67 267 70 204 203 -15 32 -39 53 -94 82 l-25 13 34 0 c19 0 32 2 30 4
-10 9 -79 12 -127 5z m32 -81 c8 -14 7 -21 -6 -34 -30 -30 -75 9 -48 42 16 18
39 15 54 -8z m106 -173 c0 -18 -56 -49 -65 -35 -3 5 9 19 27 30 39 24 38 24
38 5z"/>
<path d="M798 1352 l33 -7 -33 -14 c-42 -18 -86 -63 -94 -96 -12 -50 2 -115
32 -147 53 -56 119 -72 177 -42 74 39 107 115 82 187 -16 47 -39 73 -85 98
-34 17 -34 18 -9 19 14 0 45 -13 67 -30 48 -35 63 -39 37 -10 -10 11 -24 20
-31 20 -7 0 -14 6 -16 13 -3 8 -34 13 -99 14 -53 1 -80 -1 -61 -5z m26 -58
c24 -9 20 -51 -6 -60 -28 -9 -52 20 -37 47 10 20 18 23 43 13z m124 -186 c-8
-23 -57 -53 -69 -41 -7 7 0 17 23 31 37 24 51 27 46 10z"/>
<path d="M720 1334 c-14 -8 -18 -14 -10 -14 8 1 24 7 34 15 24 19 10 18 -24
-1z"/>
</g>
</svg>
